Coordinates
version=1
nRows=54
nColumns=12
inDegrees=yes

Units are S.I. units (second, meters, Newtons, ...)
Angles are in degrees

endheader
time	SC_y	SC_z	SC_x	AC_y	AC_z	AC_x	GH_y	GH_z	GH_yy	EL_x	PS_y
       0.0              -42.35         -1.331          84.31          38.21         -17.67         -2.469          67.32          16.57         -110.8          75.56          151.2
   0.02822              -42.35         -1.331           84.3          38.21         -17.67         -2.472          67.34          16.57         -110.9          75.56          151.2
   0.05644              -42.35         -1.331          84.29          38.21         -17.67         -2.475          67.35          16.58         -110.9          75.56          151.2
   0.08466              -42.35         -1.332          84.28          38.21         -17.67         -2.477          67.36          16.59         -110.9          75.55          151.1
    0.1129              -42.35         -1.332          84.26          38.21         -17.67          -2.48          67.38           16.6         -110.9          75.55          151.1
    0.1411              -42.35         -1.332          84.25          38.22         -17.67         -2.484          67.39          16.61         -110.9          75.54          151.1
    0.1693              -42.35         -1.332          84.23          38.22         -17.67         -2.487          67.41          16.62         -110.9          75.54          151.1
    0.1975              -42.35         -1.333          84.22          38.22         -17.67         -2.491          67.43          16.63         -110.9          75.53          151.1
    0.2258              -42.35         -1.333           84.2          38.22         -17.67         -2.495          67.45          16.64         -110.9          75.53          151.0
     0.254              -42.34         -1.333          84.18          38.23         -17.67         -2.499          67.47          16.65         -110.9          75.52          151.0
    0.2822              -42.34         -1.334          84.16          38.23         -17.67         -2.503          67.49          16.66         -110.9          75.51          151.0
    0.3104              -42.34         -1.334          84.14          38.23         -17.67         -2.508          67.51          16.67         -110.9          75.51          150.9
    0.3387              -42.34         -1.334          84.11          38.24         -17.67         -2.513          67.54          16.69         -110.9           75.5          150.9
    0.3669              -42.34         -1.335          84.09          38.24         -17.67         -2.519          67.57           16.7         -111.0          75.49          150.8
    0.3951              -42.34         -1.335          84.06          38.24         -17.67         -2.525           67.6          16.72         -111.0          75.48          150.8
    0.4233              -42.34         -1.336          84.03          38.25         -17.68         -2.532          67.63          16.74         -111.0          75.47          150.8
    0.4515              -42.33         -1.336           84.0          38.25         -17.68         -2.539          67.67          16.76         -111.0          75.46          150.7
    0.4798              -42.33         -1.337          83.96          38.26         -17.68         -2.547          67.71          16.78         -111.0          75.45          150.7
     0.508              -42.33         -1.338          83.92          38.26         -17.68         -2.555          67.75           16.8         -111.0          75.43          150.6
    0.5362              -42.33         -1.338          83.88          38.27         -17.68         -2.565           67.8          16.83         -111.1          75.42          150.5
    0.5644              -42.33         -1.339          83.83          38.28         -17.68         -2.575          67.85          16.86         -111.1          75.41          150.4
    0.5926              -42.32          -1.34          83.78          38.28         -17.68         -2.586           67.9          16.89         -111.1          75.39          150.4
    0.6209              -42.32         -1.341          83.72          38.29         -17.68         -2.599          67.96          16.92         -111.1          75.37          150.3
    0.6491              -42.32         -1.342          83.66           38.3         -17.69         -2.613          68.03          16.96         -111.2          75.35          150.2
    0.6773              -42.31         -1.343          83.59          38.31         -17.69         -2.628          68.11           17.0         -111.2          75.33          150.1
    0.7055              -42.31         -1.345          83.51          38.32         -17.69         -2.645          68.19          17.05         -111.2           75.3          149.9
    0.7338               -42.3         -1.346          83.42          38.34         -17.69         -2.664          68.29          17.11         -111.3          75.27          149.8
     0.762               -42.3         -1.348          83.32          38.35         -17.69         -2.686           68.4          17.16         -111.3          75.24          149.7
    0.7902              -42.29          -1.35          83.21          38.37          -17.7         -2.711          68.52          17.23         -111.4           75.2          149.5
    0.8184              -42.28         -1.352          83.09          38.39          -17.7         -2.738          68.66          17.31         -111.5          75.16          149.3
    0.8466              -42.28         -1.354          82.94          38.41          -17.7          -2.77          68.81           17.4         -111.5          75.11          149.1
    0.8749              -42.27         -1.357          82.77          38.43         -17.71         -2.807          68.99           17.5         -111.6          75.06          148.8
    0.9031              -42.26         -1.361          82.58          38.46         -17.71         -2.849           69.2          17.61         -111.7          74.99          148.5
    0.9313              -42.24         -1.364          82.36          38.49         -17.72         -2.897          69.44          17.75         -111.8          74.92          148.1
    0.9595              -42.23         -1.369           82.1          38.53         -17.73         -2.955          69.73          17.91         -111.9          74.83          147.7
    0.9877              -42.21         -1.374          81.79          38.58         -17.73         -3.022          70.06          18.09         -112.1          74.73          147.3
     1.016              -42.19          -1.38          81.42          38.63         -17.74         -3.102          70.46          18.31         -112.3          74.61          146.7
     1.044              -42.17         -1.388          80.98          38.69         -17.75         -3.198          70.93          18.58         -112.5          74.47          146.0
     1.072              -42.14         -1.397          80.45          38.77         -17.77         -3.314          71.51           18.9         -112.7          74.29          145.2
     1.101               -42.1         -1.408           79.8          38.87         -17.78         -3.456          72.21          19.29         -113.1          74.08          144.2
     1.129              -42.06         -1.422           79.0          38.98         -17.81         -3.631          73.08          19.77         -113.5          73.82          142.9
     1.157               -42.0         -1.439          78.01          39.13         -17.83         -3.849          74.16          20.37         -113.9          73.49          141.3
     1.185              -41.93          -1.46          76.75          39.32         -17.86         -4.124          75.53          21.13         -114.6          73.07          139.4
     1.214              -41.85         -1.487          75.15          39.55          -17.9         -4.474          77.26          22.09         -115.3          72.55          136.9
     1.242              -41.73         -1.522          73.11          39.85         -17.96         -4.921          79.48          23.33         -116.3          71.87          133.7
      1.27              -41.59         -1.567          70.48          40.24         -18.03         -5.496          82.32          24.91         -117.6          71.01          129.6
     1.298               -41.4         -1.624          67.13          40.73         -18.11         -6.229          85.96          26.93         -119.3           69.9          124.3
     1.326              -41.17         -1.696          62.91          41.35         -18.22         -7.151          90.53          29.48         -121.3          68.52          117.7
     1.355              -40.89         -1.784          57.77           42.1         -18.35         -8.275           96.1          32.58         -123.9          66.82          109.7
     1.383              -40.56         -1.885          51.82          42.97         -18.51         -9.578          102.6          36.17         -126.8          64.86          100.4
     1.411               -40.2         -1.995          45.37          43.92         -18.67         -10.99          109.5          40.06         -129.9          62.74          90.31
     1.439              -39.85         -2.105          38.92          44.87         -18.84          -12.4          116.5          43.95         -133.1          60.61          80.23
     1.468              -39.52         -2.207          32.97          45.74         -18.99          -13.7          123.0          47.54         -136.0          58.65          70.92
     1.496              -39.24         -2.294          27.83          46.49         -19.13         -14.83          128.6          50.64         -138.5          56.96          62.89
